<svg viewBox="0 0 512 512" xmlns="http://www.w3.org/2000/svg">
  <rect width="512" height="512" rx="120" fill="#EAF4FF"/>
  <circle cx="256" cy="256" r="190" fill="#D6ECFF"/>
  <path d="M256 102C214.2 102 180 137.8 180 181.6C180 219.4 199.6 244.3 199.6 284.6C199.6 323.4 188.7 398 220.8 398C249.4 398 236.7 333.9 256 333.9C275.3 333.9 262.6 398 291.2 398C323.3 398 312.4 323.4 312.4 284.6C312.4 244.3 332 219.4 332 181.6C332 137.8 297.8 102 256 102Z" fill="#0F6CBD"/>
  <path d="M256 126C225.8 126 201.6 151.9 201.6 183.1C201.6 217.2 220.1 241.1 220.1 281C220.1 316.4 211.7 375 233.3 375C249.7 375 244 321.7 256 321.7C268 321.7 262.3 375 278.7 375C300.3 375 291.9 316.4 291.9 281C291.9 241.1 310.4 217.2 310.4 183.1C310.4 151.9 286.2 126 256 126Z" fill="white"/>
  <path d="M256 146C237.8 146 222.8 162 222.8 181.6C222.8 208.7 238.2 228.9 238.2 261.6C238.2 293.6 232.6 347 245.2 347C253.8 347 251.9 307.8 256 307.8C260.1 307.8 258.2 347 266.8 347C279.4 347 273.8 293.6 273.8 261.6C273.8 228.9 289.2 208.7 289.2 181.6C289.2 162 274.2 146 256 146Z" fill="#D8EEFF"/>
</svg>
