<svg width="1200" height="630" viewBox="0 0 1200 630" fill="none" xmlns="http://www.w3.org/2000/svg">
  <rect width="1200" height="630" fill="#F6FAF7"/>
  <rect x="44" y="44" width="1112" height="542" rx="36" fill="url(#bg)"/>
  <circle cx="170" cy="130" r="88" fill="#DCFCE7"/>
  <circle cx="1038" cy="494" r="118" fill="#DBEAFE"/>
  <rect x="108" y="118" width="456" height="394" rx="30" fill="#FFFFFF" fill-opacity="0.97"/>
  <rect x="142" y="152" width="116" height="116" rx="24" fill="#16A34A"/>
  <path d="M184 178C166.327 178 152 192.327 152 210V210C152 227.673 166.327 242 184 242V242C201.673 242 216 227.673 216 210V210C216 192.327 201.673 178 184 178V178Z" fill="white"/>
  <path d="M184 232V270" stroke="#16A34A" stroke-width="16" stroke-linecap="round"/>
  <path d="M165 251H203" stroke="#16A34A" stroke-width="16" stroke-linecap="round"/>
  <rect x="282" y="170" width="216" height="18" rx="9" fill="#BBF7D0"/>
  <rect x="282" y="202" width="152" height="14" rx="7" fill="#DCFCE7"/>
  <rect x="142" y="312" width="388" height="22" rx="11" fill="#D7F3E1"/>
  <rect x="142" y="350" width="344" height="22" rx="11" fill="#D7F3E1"/>
  <rect x="142" y="388" width="362" height="22" rx="11" fill="#D7F3E1"/>
  <rect x="142" y="426" width="296" height="22" rx="11" fill="#D7F3E1"/>
  <rect x="648" y="122" width="412" height="408" rx="30" fill="#0F172A"/>
  <rect x="684" y="162" width="340" height="42" rx="14" fill="#1E293B"/>
  <rect x="708" y="176" width="126" height="14" rx="7" fill="#60A5FA"/>
  <rect x="684" y="232" width="340" height="30" rx="12" fill="#1E293B"/>
  <rect x="684" y="278" width="340" height="30" rx="12" fill="#1E293B"/>
  <rect x="684" y="324" width="340" height="30" rx="12" fill="#1E293B"/>
  <rect x="684" y="370" width="340" height="30" rx="12" fill="#1E293B"/>
  <rect x="684" y="416" width="166" height="56" rx="18" fill="#1D4ED8"/>
  <circle cx="980" cy="446" r="30" fill="#16A34A"/>
  <path d="M965 446L975 456L996 435" stroke="white" stroke-width="10" stroke-linecap="round" stroke-linejoin="round"/>
  <text x="108" y="100" fill="#166534" font-family="Lexend, Arial, sans-serif" font-size="28" font-weight="700">Northwind Dental Studio</text>
  <text x="108" y="556" fill="#0F172A" font-family="Lexend, Arial, sans-serif" font-size="56" font-weight="700">Readme for content and site setup</text>
  <text x="108" y="596" fill="#475569" font-family="Lexend, Arial, sans-serif" font-size="24" font-weight="500">Homepage content, navigation, reviews, services, and local presence blocks.</text>
  <defs>
    <linearGradient id="bg" x1="44" y1="44" x2="1156" y2="586" gradientUnits="userSpaceOnUse">
      <stop stop-color="#F8FFF9"/>
      <stop offset="1" stop-color="#EFF6FF"/>
    </linearGradient>
  </defs>
</svg>
